# xmcd
#
# Track frame offsets:
#	150
#	20724
#	38210
#	54354
#	71439
#	86525
#	103425
#	121448
#	138583
#	155573
#	173185
#	191931
#	206931
#	225432
#
# Disc length: 3245 seconds
#
# Revision: 0
# Processed by: cddbd v1.5.2PL0 Copyright (c) Steve Scherf et al.
# Submitted via: dBpowerAMP V4.0
#
DISCID=ce0cab0e
DTITLE=carrie underwood - some hearts
DYEAR=1900
DGENRE=Country
TTITLE0=waste my life
TTITLE1=young and beautiful
TTITLE2=thats where it is
TTITLE3=whenever you remember
TTITLE4=ain't in sicona anymore
TTITLE5=inside your heaven
TTITLE6=don't forget to remember me
TTITLE7=some hearts
TTITLE8=jesus take the wheel
TTITLE9=life goes on
TTITLE10=lessons learned
TTITLE11=before he cheats
TTITLE12=have to hurt
TTITLE13=can't live a lie
EXTD=carrie underwood
EXTT0=
EXTT1=
EXTT2=
EXTT3=
EXTT4=
EXTT5=
EXTT6=
EXTT7=
EXTT8=
EXTT9=
EXTT10=
EXTT11=
EXTT12=
EXTT13=
PLAYORDER=
